<svg width="800" height="600" xmlns="http://www.w3.org/2000/svg">
  <defs>
    <style>
      .agent { fill: #e1f5fe; stroke: #01579b; stroke-width: 2px; }
      .github { fill: #f3e5f5; stroke: #7b1fa2; stroke-width: 2px; }
      .observability { fill: #fff3e0; stroke: #ef6c00; stroke-width: 2px; }
      .storage { fill: #e8f5e8; stroke: #2e7d32; stroke-width: 2px; }
      .text { font-family: Arial, sans-serif; font-size: 12px; text-anchor: middle; fill: #333; }
      .title { font-family: Arial, sans-serif; font-size: 16px; font-weight: bold; text-anchor: middle; fill: #333; }
      .subtitle { font-family: Arial, sans-serif; font-size: 10px; text-anchor: middle; fill: #666; }
      .flow { stroke: #333; stroke-width: 2px; fill: none; marker-end: url(#arrowhead); }
      .trace { stroke: #ef6c00; stroke-width: 1px; stroke-dasharray: 5,5; fill: none; }
    </style>
    <marker id="arrowhead" markerWidth="10" markerHeight="7" refX="9" refY="3.5" orient="auto">
      <polygon points="0 0, 10 3.5, 0 7" fill="#333"/>
    </marker>
  </defs>
  
  <!-- Title -->
  <text x="400" y="25" class="title">Secure-PR-Guard Multi-Agent Architecture</text>
  <text x="400" y="45" class="subtitle">AI-Powered Code Review with Grafana Observability</text>
  
  <!-- GitHub PR -->
  <rect x="50" y="80" width="120" height="50" rx="8" class="github"/>
  <text x="110" y="100" class="text">GitHub PR</text>
  <text x="110" y="115" class="subtitle">Pull Request</text>
  
  <!-- Fetch Diff Agent -->
  <rect x="220" y="80" width="120" height="50" rx="8" class="agent"/>
  <text x="280" y="100" class="text">Fetch Diff</text>
  <text x="280" y="115" class="subtitle">Agent</text>
  
  <!-- Nitpicker Agent -->
  <rect x="380" y="80" width="120" height="50" rx="8" class="agent"/>
  <text x="440" y="95" class="text">Nitpicker</text>
  <text x="440" y="110" class="subtitle">AI Analysis</text>
  <text x="440" y="122" class="subtitle">+ OWASP</text>
  
  <!-- Architect Agent -->
  <rect x="540" y="80" width="120" height="50" rx="8" class="agent"/>
  <text x="600" y="95" class="text">Architect</text>
  <text x="600" y="110" class="subtitle">Risk Assessment</text>
  <text x="600" y="122" class="subtitle">Prioritization</text>
  
  <!-- Patch Agent -->
  <rect x="380" y="180" width="120" height="50" rx="8" class="agent"/>
  <text x="440" y="200" class="text">Patch Agent</text>
  <text x="440" y="215" class="subtitle">Auto-Fix Generation</text>
  
  <!-- Comment Agent -->
  <rect x="220" y="180" width="120" height="50" rx="8" class="agent"/>
  <text x="280" y="200" class="text">Comment</text>
  <text x="280" y="215" class="subtitle">GitHub Integration</text>
  
  <!-- Draft PR -->
  <rect x="540" y="180" width="120" height="50" rx="8" class="github"/>
  <text x="600" y="200" class="text">Draft PR</text>
  <text x="600" y="215" class="subtitle">Auto-Patch</text>
  
  <!-- OpenTelemetry -->
  <rect x="50" y="300" width="140" height="50" rx="8" class="observability"/>
  <text x="120" y="320" class="text">OpenTelemetry</text>
  <text x="120" y="335" class="subtitle">Instrumentation</text>
  
  <!-- Grafana Cloud -->
  <rect x="240" y="300" width="140" height="50" rx="8" class="observability"/>
  <text x="310" y="320" class="text">Grafana Cloud</text>
  <text x="310" y="335" class="subtitle">Tempo Traces</text>
  
  <!-- Dashboard -->
  <rect x="430" y="300" width="140" height="50" rx="8" class="observability"/>
  <text x="500" y="320" class="text">Dashboard</text>
  <text x="500" y="335" class="subtitle">Metrics &amp; Analytics</text>
  
  <!-- Local Storage -->
  <rect x="620" y="300" width="120" height="50" rx="8" class="storage"/>
  <text x="680" y="320" class="text">logs/cost.csv</text>
  <text x="680" y="335" class="subtitle">Local Analytics</text>
  
  <!-- Main Flow Lines -->
  <line x1="170" y1="105" x2="220" y2="105" class="flow"/>
  <line x1="340" y1="105" x2="380" y2="105" class="flow"/>
  <line x1="500" y1="105" x2="540" y2="105" class="flow"/>
  
  <!-- Down to patch -->
  <line x1="600" y1="130" x2="600" y2="160" class="flow"/>
  <line x1="600" y1="160" x2="440" y2="160" class="flow"/>
  <line x1="440" y1="160" x2="440" y2="180" class="flow"/>
  
  <!-- Patch to comment -->
  <line x1="380" y1="205" x2="340" y2="205" class="flow"/>
  
  <!-- Comment back to GitHub -->
  <line x1="220" y1="205" x2="110" y2="205" class="flow"/>
  <line x1="110" y1="205" x2="110" y2="130" class="flow"/>
  
  <!-- Patch to Draft PR -->
  <line x1="500" y1="205" x2="540" y2="205" class="flow"/>
  
  <!-- Observability traces -->
  <line x1="440" y1="130" x2="120" y2="300" class="trace"/>
  <line x1="440" y1="230" x2="120" y2="300" class="trace"/>
  <line x1="280" y1="230" x2="120" y2="300" class="trace"/>
  
  <!-- OTLP flow -->
  <line x1="190" y1="325" x2="240" y2="325" class="flow"/>
  <line x1="380" y1="325" x2="430" y2="325" class="flow"/>
  
  <!-- To local storage -->
  <line x1="120" y1="350" x2="680" y2="350" class="trace"/>
  <line x1="680" y1="350" x2="680" y2="300" class="trace"/>
  
  <!-- Flow Labels -->
  <text x="195" y="100" class="subtitle">diff fetch</text>
  <text x="360" y="100" class="subtitle">raw diff</text>
  <text x="470" y="100" class="subtitle">security issues</text>
  <text x="520" y="145" class="subtitle">prioritized</text>
  <text x="360" y="200" class="subtitle">patches</text>
  <text x="155" y="200" class="subtitle">review</text>
  <text x="520" y="200" class="subtitle">draft PR</text>
  
  <!-- Observability Labels -->
  <text x="300" y="280" class="subtitle" fill="#ef6c00">traces &amp; metrics</text>
  <text x="215" y="320" class="subtitle">OTLP</text>
  <text x="405" y="320" class="subtitle">TraceQL</text>
  
  <!-- Legend -->
  <text x="50" y="450" class="text" font-weight="bold">Legend:</text>
  <rect x="50" y="465" width="15" height="15" class="agent"/>
  <text x="75" y="477" class="subtitle">AI Agents</text>
  <rect x="150" y="465" width="15" height="15" class="github"/>
  <text x="175" y="477" class="subtitle">GitHub</text>
  <rect x="230" y="465" width="15" height="15" class="observability"/>
  <text x="255" y="477" class="subtitle">Observability</text>
  <rect x="340" y="465" width="15" height="15" class="storage"/>
  <text x="365" y="477" class="subtitle">Storage</text>
</svg> 