<svg width="800" height="600" xmlns="http://www.w3.org/2000/svg">
  <defs>
    <style>
      .agent { fill: #e1f5fe; stroke: #01579b; stroke-width: 2px; }
      .github { fill: #f3e5f5; stroke: #7b1fa2; stroke-width: 2px; }
      .observability { fill: #fff3e0; stroke: #ef6c00; stroke-width: 2px; }
      .storage { fill: #e8f5e8; stroke: #2e7d32; stroke-width: 2px; }
      .text { font-family: Arial, sans-serif; font-size: 12px; text-anchor: middle; }
      .title { font-family: Arial, sans-serif; font-size: 14px; font-weight: bold; text-anchor: middle; }
      .flow { stroke: #333; stroke-width: 2px; fill: none; marker-end: url(#arrowhead); }
      .trace { stroke: #ef6c00; stroke-width: 1px; stroke-dasharray: 5,5; fill: none; }
    </style>
    <marker id="arrowhead" markerWidth="10" markerHeight="7" refX="9" refY="3.5" orient="auto">
      <polygon points="0 0, 10 3.5, 0 7" fill="#333"/>
    </marker>
  </defs>
  
  <!-- Title -->
  <text x="400" y="30" class="title" font-size="18">🏗️ Secure-PR-Guard Multi-Agent Architecture</text>
  
  <!-- GitHub PR -->
  <rect x="50" y="80" width="120" height="60" rx="10" class="github"/>
  <text x="110" y="100" class="text">🔗 GitHub PR</text>
  <text x="110" y="120" class="text" font-size="10">Pull Request</text>
  
  <!-- Fetch Diff Agent -->
  <rect x="220" y="80" width="120" height="60" rx="10" class="agent"/>
  <text x="280" y="100" class="text">🔍 Fetch Diff</text>
  <text x="280" y="120" class="text" font-size="10">Agent</text>
  
  <!-- Nitpicker Agent -->
  <rect x="380" y="80" width="120" height="60" rx="10" class="agent"/>
  <text x="440" y="95" class="text">🤖 Nitpicker</text>
  <text x="440" y="110" class="text" font-size="10">AI Analysis</text>
  <text x="440" y="125" class="text" font-size="10">+ OWASP</text>
  
  <!-- Architect Agent -->
  <rect x="540" y="80" width="120" height="60" rx="10" class="agent"/>
  <text x="600" y="95" class="text">🏗️ Architect</text>
  <text x="600" y="110" class="text" font-size="10">Risk Assessment</text>
  <text x="600" y="125" class="text" font-size="10">& Prioritization</text>
  
  <!-- Patch Agent -->
  <rect x="380" y="200" width="120" height="60" rx="10" class="agent"/>
  <text x="440" y="215" class="text">🛠️ Patch Agent</text>
  <text x="440" y="230" class="text" font-size="10">Auto-Fix</text>
  <text x="440" y="245" class="text" font-size="10">Generation</text>
  
  <!-- Comment Agent -->
  <rect x="220" y="200" width="120" height="60" rx="10" class="agent"/>
  <text x="280" y="215" class="text">💬 Comment</text>
  <text x="280" y="230" class="text" font-size="10">GitHub</text>
  <text x="280" y="245" class="text" font-size="10">Integration</text>
  
  <!-- Draft PR -->
  <rect x="540" y="200" width="120" height="60" rx="10" class="github"/>
  <text x="600" y="220" class="text">📝 Draft PR</text>
  <text x="600" y="240" class="text" font-size="10">Auto-Patch</text>
  
  <!-- OpenTelemetry -->
  <rect x="50" y="350" width="140" height="60" rx="10" class="observability"/>
  <text x="120" y="370" class="text">📊 OpenTelemetry</text>
  <text x="120" y="385" class="text" font-size="10">Instrumentation</text>
  <text x="120" y="400" class="text" font-size="10">& Tracing</text>
  
  <!-- Grafana Cloud -->
  <rect x="240" y="350" width="140" height="60" rx="10" class="observability"/>
  <text x="310" y="370" class="text">☁️ Grafana Cloud</text>
  <text x="310" y="385" class="text" font-size="10">Tempo Traces</text>
  <text x="310" y="400" class="text" font-size="10">OTLP/HTTP</text>
  
  <!-- Dashboard -->
  <rect x="430" y="350" width="140" height="60" rx="10" class="observability"/>
  <text x="500" y="365" class="text">📈 Dashboard</text>
  <text x="500" y="380" class="text" font-size="10">Metrics &amp;</text>
  <text x="500" y="395" class="text" font-size="10">Analytics</text>
  
  <!-- Local Storage -->
  <rect x="620" y="350" width="120" height="60" rx="10" class="storage"/>
  <text x="680" y="370" class="text">📄 logs/</text>
  <text x="680" y="385" class="text" font-size="10">cost.csv</text>
  <text x="680" y="400" class="text" font-size="10">Local Analytics</text>
  
  <!-- Main Flow Lines -->
  <line x1="170" y1="110" x2="220" y2="110" class="flow"/>
  <line x1="340" y1="110" x2="380" y2="110" class="flow"/>
  <line x1="500" y1="110" x2="540" y2="110" class="flow"/>
  
  <!-- Down to patch -->
  <line x1="600" y1="140" x2="600" y2="180" class="flow"/>
  <line x1="600" y1="180" x2="440" y2="180" class="flow"/>
  <line x1="440" y1="180" x2="440" y2="200" class="flow"/>
  
  <!-- Patch to comment -->
  <line x1="380" y1="230" x2="340" y2="230" class="flow"/>
  
  <!-- Comment back to GitHub -->
  <line x1="220" y1="230" x2="110" y2="230" class="flow"/>
  <line x1="110" y1="230" x2="110" y2="140" class="flow"/>
  
  <!-- Patch to Draft PR -->
  <line x1="500" y1="230" x2="540" y2="230" class="flow"/>
  
  <!-- Observability traces (dashed lines) -->
  <line x1="440" y1="140" x2="120" y2="350" class="trace"/>
  <line x1="440" y1="260" x2="120" y2="350" class="trace"/>
  <line x1="280" y1="260" x2="120" y2="350" class="trace"/>
  
  <!-- OTLP flow -->
  <line x1="190" y1="380" x2="240" y2="380" class="flow"/>
  <line x1="380" y1="380" x2="430" y2="380" class="flow"/>
  
  <!-- To local storage -->
  <line x1="120" y1="410" x2="680" y2="410" class="trace"/>
  <line x1="680" y1="410" x2="680" y2="350" class="trace"/>
  
  <!-- Labels for flows -->
  <text x="195" y="105" class="text" font-size="10">diff fetch</text>
  <text x="360" y="105" class="text" font-size="10">raw diff</text>
  <text x="470" y="105" class="text" font-size="10">issues</text>
  <text x="520" y="160" class="text" font-size="10">prioritized</text>
  <text x="360" y="225" class="text" font-size="10">patches</text>
  <text x="155" y="225" class="text" font-size="10">review</text>
  <text x="520" y="225" class="text" font-size="10">draft PR</text>
  
  <!-- Observability labels -->
  <text x="300" y="300" class="text" font-size="10" fill="#ef6c00">traces &amp; metrics</text>
  <text x="215" y="375" class="text" font-size="10">OTLP</text>
  <text x="405" y="375" class="text" font-size="10">TraceQL</text>
</svg> 